<svg width="32" height="32" viewBox="0 0 32 32" fill="none" xmlns="http://www.w3.org/2000/svg">
<path d="M4.69189 18.9049V31.5082H0.00260516V18.9049H4.69189ZM31.2645 18.9049V31.5082H26.5752V18.9049H31.2645ZM11.0389 2.92425L12.2772 5.52716C12.3786 5.73892 12.3856 5.98422 12.2964 6.20148C12.2072 6.41874 12.0303 6.58734 11.81 6.66495C7.65308 8.15283 4.68928 11.9986 4.68928 16.5086V17.3339H0V16.5086C0 10.1195 4.15783 4.66682 10.0168 2.50501C10.4138 2.35813 10.8565 2.53971 11.0389 2.92425ZM21.2459 2.49364C27.1066 4.66244 31.2645 10.1177 31.2645 16.5042V17.3295H26.5752V16.5042C26.5752 11.9942 23.6149 8.14933 19.4544 6.66057C19.2342 6.58296 19.0573 6.41436 18.9681 6.1971C18.8789 5.97984 18.8858 5.73454 18.9872 5.52278L20.2238 2.91287C20.4062 2.52833 20.8489 2.34675 21.2459 2.49364Z" fill="#27272A"/>
<path d="M15.6334 7.50154C20.8125 7.50154 25.012 11.5319 25.012 16.5041V31.508H20.3227V16.5041C20.3227 14.0176 18.223 12.0028 15.6334 12.0028C13.0439 12.0028 10.9442 14.0158 10.9442 16.5041V31.508H6.25488V16.5041C6.25488 11.5319 10.4544 7.50154 15.6334 7.50154ZM18.6085 0.203054C18.868 0.238663 19.095 0.396919 19.2196 0.629033C19.3442 0.861148 19.3514 1.13925 19.239 1.3776L19.0141 1.85197L17.273 5.52791C17.1273 5.83115 16.8147 6.016 16.481 5.99616C16.2002 5.9804 15.9177 5.97252 15.6334 5.97252C15.3495 5.97252 15.0664 5.9804 14.7859 5.99616C14.4524 6.01612 14.14 5.83118 13.9948 5.52791L12.2528 1.85197L12.0279 1.3776C11.9155 1.13925 11.9227 0.861148 12.0473 0.629033C12.1719 0.396919 12.3989 0.238663 12.6584 0.203054C14.6327 -0.0676847 16.6342 -0.0676847 18.6085 0.203054Z" fill="#FFC905"/>
</svg>
